<svg width="440" height="440" viewBox="0 0 440 440" fill="none" xmlns="http://www.w3.org/2000/svg">
<path fill-rule="evenodd" clip-rule="evenodd" d="M172 440V439V417.904V356.669C109.33 336.943 64 279.629 64 212C64 128.053 133.844 60 220 60C306.156 60 376 128.053 376 212C376 279.629 330.67 336.943 268 356.669V417.904V439V440H440V378H355.063C406.167 339.281 439 279.094 439 211.5C439 94.6919 340.95 0 220 0C99.0496 0 1 94.6919 1 211.5C1 279.094 33.8331 339.281 84.9373 378H0V440H172Z" fill="white"/>
</svg>
