<?xml version="1.0" encoding="utf-8"?>
<!-- Generator: Adobe Illustrator 26.2.1, SVG Export Plug-In . SVG Version: 6.00 Build 0)  -->
<svg version="1.1" id="Layer_1" xmlns="http://www.w3.org/2000/svg" xmlns:xlink="http://www.w3.org/1999/xlink" x="0px" y="0px"
	 viewBox="0 0 415.5 86.6" style="enable-background:new 0 0 415.5 86.6;" xml:space="preserve">
<style type="text/css">
	.st0{fill:none;}
</style>
<g>
	<path class="st0" d="M136.4,28.9c-8.8,0-13.3,7.6-13.3,17.5s4.5,17.5,13.3,17.5c8.8,0,13.2-7.5,13.2-17.5S145.3,28.9,136.4,28.9z"
		/>
	<path class="st0" d="M313.3,43.3c-5.4,0-8.2,4.8-8.2,11.1c0,6.3,3,10.7,8.4,10.7c4.7,0,7.6-4,7.6-10.7
		C321.2,47.8,318.7,43.3,313.3,43.3z"/>
	<path d="M136.4,18c-16.5,0-26.9,12.1-26.9,28.4c0,16.3,10.4,28.4,26.9,28.4c16.5,0,27-12.1,27-28.4C163.4,30.1,152.9,18,136.4,18z
		 M136.4,63.9c-8.8,0-13.3-7.5-13.3-17.5s4.5-17.5,13.3-17.5c8.8,0,13.2,7.6,13.2,17.5S145.3,63.9,136.4,63.9z"/>
	<rect x="167.9" y="19" width="12.6" height="54.5"/>
	<path d="M206.6,51.1c-1.2,3.8-2.3,9-2.3,9h-0.2c0,0-1.2-5.2-2.4-9l-5.3-16.6h-13.1l11.5,30c1.6,4.1,2.4,6.4,2.4,8.1
		c0,2.7-1.4,4.1-5.1,4.1h-4.3v9.7h8.1c7.9,0,11.6-3.2,14.7-12.4l13.5-39.6h-12.4L206.6,51.1z"/>
	<path d="M274.2,33.4c-5,0-9.2,2.1-12.3,6.9h-0.2c-2-4.2-5.9-6.9-11-6.9c-5.6,0-9.4,2.7-11.8,6.7h-0.2v-5.6h-11.9v39h12.4V51.7
		c0-4.7,2.3-7.9,6.2-7.9c3.7,0,5.5,2.4,5.5,6.6v23.2h12.4V51.7c0-4.7,2.2-7.9,6.2-7.9c3.7,0,5.5,2.4,5.5,6.6v23.2h12.4V48.1
		C287.5,39.4,283,33.4,274.2,33.4z"/>
	<path d="M317.1,33.4c-5.3,0-9.1,2.4-11.8,5.9H305v-4.7h-11.9v51.9h12.4V69.5h0.2c2.4,3.3,6,5.3,11.1,5.3c10.2,0,17-8.1,17-20.7
		C333.7,42.3,327.4,33.4,317.1,33.4z M313.5,65.1c-5.3,0-8.4-4.3-8.4-10.7c0-6.3,2.7-11.1,8.2-11.1c5.3,0,7.9,4.4,7.9,11.1
		C321.2,61.1,318.3,65.1,313.5,65.1z"/>
	<path d="M362.7,56.3c0,4.7-2.6,7.9-6.9,7.9c-4,0-5.9-2.4-5.9-6.6v-23h-12.4v25.6c0,8.7,4.7,14.6,13.7,14.6c5.4,0,8.8-2.1,11.7-5.9
		h0.2v4.8h11.9v-39h-12.4V56.3z"/>
	<path d="M400.5,48.9c-5-0.9-9.4-1.3-9.4-4c0-2.4,2.4-3.6,5.4-3.6c3.4,0,5.8,1.1,6.3,4.6h11.4c-0.6-7.7-6.6-12.5-17.6-12.5
		c-9.2,0-16.8,4.3-16.8,12.5c0,9.1,7.2,11,14,12.1c5.2,0.9,9.9,1.3,9.9,4.8c0,2.5-2.4,3.9-6.1,3.9c-4.1,0-6.7-1.9-7.2-5.8h-11.7
		c0.4,8.6,7.5,13.9,19,13.9c10.2,0,17.8-4.4,17.8-13C415.5,51.8,407.4,50.1,400.5,48.9z"/>
	<path d="M83.7,41.4C83.7,18.8,65.4,0,41.9,0C19.2,0,0,18.8,0,41.4C0,54.6,5.8,67,16.5,73.7H0v12.9h33V69.2
		c-11.1-2.9-20.1-14.5-20.1-27.8c0-15.2,13.3-28.5,29-28.5c16.8,0.4,28.9,13.4,28.9,28.5c0,13.3-8.1,23.7-19.9,27.8v17.4h32.6V73.7
		H66.8C77.8,67.4,83.7,54.5,83.7,41.4z"/>
</g>
</svg>
